<?xml version="1.0" standalone="no"?>
<!DOCTYPE svg PUBLIC "-//W3C//DTD SVG 20010904//EN"
 "http://www.w3.org/TR/2001/REC-SVG-20010904/DTD/svg10.dtd">
<svg version="1.0" xmlns="http://www.w3.org/2000/svg"
 width="256.000000pt" height="256.000000pt" viewBox="0 0 256.000000 256.000000"
 preserveAspectRatio="xMidYMid meet">
<metadata>
Created by potrace 1.11, written by Peter Selinger 2001-2013
</metadata>
<g transform="translate(0.000000,256.000000) scale(0.100000,-0.100000)"
fill="#000000" stroke="none">
<path d="M1180 2554 c-309 -29 -583 -157 -800 -374 -247 -247 -373 -551 -373
-900 0 -349 126 -653 373 -900 247 -247 551 -373 900 -373 349 0 653 126 900
373 247 247 373 551 373 900 0 349 -126 653 -373 900 -188 188 -408 305 -666
354 -85 16 -261 26 -334 20z m657 -547 l163 -152 0 -712 c0 -634 -2 -713 -16
-727 -14 -14 -91 -16 -704 -16 -613 0 -690 2 -704 16 -14 14 -16 106 -16 864
0 758 2 850 16 864 14 14 78 16 557 16 l542 0 162 -153z"/>
<path d="M977 1625 c-48 -53 -87 -100 -87 -105 0 -5 39 -52 87 -105 l86 -95
28 26 28 27 -62 69 c-34 38 -62 73 -62 78 0 5 28 40 62 78 l62 69 -28 27 -28
26 -86 -95z"/>
<path d="M1468 1693 l-27 -26 62 -69 c34 -38 62 -73 62 -78 0 -5 -28 -40 -62
-78 l-62 -69 28 -27 28 -26 86 95 c48 53 87 100 87 105 0 7 -168 200 -174 200
-1 0 -13 -12 -28 -27z"/>
<path d="M880 801 l0 -161 35 0 35 0 0 65 0 65 55 0 c46 0 60 4 80 25 36 35
35 102 -1 136 -22 21 -37 24 -115 27 l-89 4 0 -161z m158 70 c5 -30 -20 -51
-60 -51 -26 0 -28 3 -28 41 l0 40 43 -3 c36 -3 42 -6 45 -27z"/>
<path d="M1150 800 l0 -160 35 0 35 0 0 65 0 65 55 0 55 0 0 -65 0 -65 35 0
35 0 0 160 0 160 -35 0 -35 0 0 -60 0 -60 -55 0 -55 0 0 60 0 60 -35 0 -35 0
0 -160z"/>
<path d="M1450 801 l0 -161 35 0 35 0 0 65 0 65 51 0 c43 0 55 5 80 29 37 38
39 88 5 128 -23 26 -30 28 -115 31 l-91 4 0 -161z m144 93 c26 -10 20 -53 -10
-64 -51 -20 -64 -14 -64 30 0 38 2 40 29 40 16 0 36 -3 45 -6z"/>
</g>
</svg>
